<?xml version="1.0" encoding="utf-8"?>
<!-- Generator: Adobe Illustrator 21.1.0, SVG Export Plug-In . SVG Version: 6.00 Build 0)  -->
<svg version="1.1" id="cross-11" xmlns="http://www.w3.org/2000/svg" xmlns:xlink="http://www.w3.org/1999/xlink" x="0px" y="0px"
	 viewBox="0 0 11 11" style="enable-background:new 0 0 11 11;" xml:space="preserve">
<style type="text/css">
	.st0{fill:#455A64;}
</style>
<path class="st0" d="M2.2,1.2l3.3,3.3l3.3-3.3C8.9,1.1,9.1,1,9.3,1C9.7,1,10,1.3,10,1.7c0,0.2-0.1,0.4-0.2,0.5L6.5,5.5l3.3,3.3
	C9.9,8.9,10,9.1,10,9.3C10,9.7,9.7,10,9.3,10c-0.2,0-0.4-0.1-0.5-0.2L5.5,6.5L2.2,9.8C2.1,9.9,1.9,10,1.7,10C1.3,10,1,9.7,1,9.3
	c0-0.2,0.1-0.4,0.2-0.5l3.3-3.3L1.2,2.2C1.1,2.1,1,1.9,1,1.7C1,1.3,1.3,1,1.7,1C1.9,1,2.1,1.1,2.2,1.2z"/>
</svg>
