<?xml version="1.0" encoding="utf-8"?>
<!-- Generator: Adobe Illustrator 21.1.0, SVG Export Plug-In . SVG Version: 6.00 Build 0)  -->
<svg version="1.1" id="Layer_1" xmlns="http://www.w3.org/2000/svg" xmlns:xlink="http://www.w3.org/1999/xlink" x="0px" y="0px"
	 viewBox="0 0 50 50" style="enable-background:new 0 0 50 50;" xml:space="preserve">
<style type="text/css">
	.st0{fill:#455A64;}
</style>
<path class="st0" d="M4.1,13.1h41.9c0.8,0,1.4-1.6,1.4-3.5s-0.6-3.5-1.4-3.5H4.1c-0.8,0-1.4,1.6-1.4,3.5S3.3,13.1,4.1,13.1z"/>
<path class="st0" d="M4.1,43.8h41.9c0.8,0,1.4-1.6,1.4-3.5s-0.6-3.5-1.4-3.5H4.1c-0.8,0-1.4,1.6-1.4,3.5S3.3,43.8,4.1,43.8z"/>
<path class="st0" d="M4.1,28.5h41.9c0.8,0,1.4-1.6,1.4-3.5s-0.6-3.5-1.4-3.5H4.1c-0.8,0-1.4,1.6-1.4,3.5S3.3,28.5,4.1,28.5z"/>
</svg>
